<svg preserveAspectRatio="none" overflow="visible" style="display: block;" width="16" height="16" viewBox="0 0 16 16" fill="none" xmlns="http://www.w3.org/2000/svg">
<g id="arrow-right">
<path id="Vector" fill-rule="evenodd" clip-rule="evenodd" d="M9.5286 4.86193C9.78894 4.60158 10.2111 4.60158 10.4714 4.86193L13.1381 7.52859C13.2631 7.65362 13.3333 7.82319 13.3333 8C13.3333 8.17681 13.2631 8.34638 13.1381 8.4714L10.4714 11.1381C10.2111 11.3984 9.78895 11.3984 9.5286 11.1381C9.26825 10.8777 9.26825 10.4556 9.5286 10.1953L11.0572 8.66667H3.33333C2.96514 8.66667 2.66667 8.36819 2.66667 8C2.66667 7.63181 2.96514 7.33333 3.33333 7.33333H11.0572L9.5286 5.80474C9.26825 5.54439 9.26825 5.12228 9.5286 4.86193Z" fill="white"/>
</g>
</svg>
